<?xml version="1.0" encoding="UTF-8" ?>
<!DOCTYPE svg PUBLIC "-//W3C//DTD SVG 1.1//EN" "http://www.w3.org/Graphics/SVG/1.1/DTD/svg11.dtd">
<svg width="99pt" height="99pt" viewBox="0 0 99 99" version="1.1" xmlns="http://www.w3.org/2000/svg">
<g id="#ffffffff">
<path fill="#ffffff" opacity="1.00" d=" M 14.97 28.85 C 37.67 28.77 60.38 28.79 83.08 28.84 C 72.96 36.43 63.07 44.32 53.01 51.99 C 50.74 53.87 47.22 53.93 45.06 51.84 C 34.97 44.27 25.02 36.49 14.97 28.85 Z" />
<path fill="#ffffff" opacity="1.00" d=" M 11.01 31.63 C 21.39 38.87 31.23 46.86 41.44 54.34 C 43.94 56.08 46.72 58.07 49.95 57.73 C 53.19 57.45 55.49 54.93 57.98 53.13 C 67.63 45.87 77.31 38.65 86.96 31.40 C 86.92 44.32 87.24 57.26 86.78 70.17 C 79.71 65.46 73.37 59.72 66.29 55.03 C 65.89 55.36 65.10 56.03 64.71 56.36 C 71.24 61.64 78.32 66.25 84.54 71.88 C 81.16 72.01 77.78 72.03 74.40 72.07 C 54.01 72.00 33.61 71.86 13.22 72.15 C 19.42 66.64 26.60 62.31 32.73 56.77 C 32.83 56.22 33.03 55.13 33.13 54.58 C 25.39 58.91 18.89 65.13 11.73 70.34 C 11.07 68.27 10.81 66.10 10.89 63.93 C 11.01 53.17 10.78 42.39 11.01 31.63 Z" />
</g>
<g id="#00aaccff">
<path fill="#00aacc" opacity="1.00" d=" M 45.91 0.00 L 53.31 0.00 C 66.65 1.11 79.37 7.66 87.80 18.09 C 94.40 25.86 98.07 35.79 99.00 45.89 L 99.00 53.34 C 97.91 65.22 92.71 76.74 83.98 84.95 C 75.46 93.51 63.61 98.36 51.61 99.00 L 45.83 99.00 C 33.21 97.78 21.00 92.04 12.61 82.44 C 4.93 74.03 0.64 62.88 0.00 51.56 L 0.00 47.43 C 0.61 35.40 5.46 23.53 14.04 15.01 C 22.30 6.19 33.94 1.02 45.91 0.00 M 14.97 28.85 C 25.02 36.49 34.97 44.27 45.06 51.84 C 47.22 53.93 50.74 53.87 53.01 51.99 C 63.07 44.32 72.96 36.43 83.08 28.84 C 60.38 28.79 37.67 28.77 14.97 28.85 M 11.01 31.63 C 10.78 42.39 11.01 53.17 10.89 63.93 C 10.81 66.10 11.07 68.27 11.73 70.34 C 18.89 65.13 25.39 58.91 33.13 54.58 C 33.03 55.13 32.83 56.22 32.73 56.77 C 26.60 62.31 19.42 66.64 13.22 72.15 C 14.77 72.67 16.36 73.13 18.01 73.17 C 28.97 73.68 39.94 73.16 50.90 73.13 C 59.16 72.73 67.45 73.38 75.69 72.68 L 74.40 72.07 C 77.78 72.03 81.16 72.01 84.54 71.88 C 78.32 66.25 71.24 61.64 64.71 56.36 C 65.10 56.03 65.89 55.36 66.29 55.03 C 73.37 59.72 79.71 65.46 86.78 70.17 C 87.24 57.26 86.92 44.32 86.96 31.40 C 77.31 38.65 67.63 45.87 57.98 53.13 C 55.49 54.93 53.19 57.45 49.95 57.73 C 46.72 58.07 43.94 56.08 41.44 54.34 C 31.23 46.86 21.39 38.87 11.01 31.63 Z" />
</g>
<g id="#0080ccff">
<path fill="#0080cc" opacity="1.00" d=" M 13.22 72.15 C 33.61 71.86 54.01 72.00 74.40 72.07 L 75.69 72.68 C 67.45 73.38 59.16 72.73 50.90 73.13 C 39.94 73.16 28.97 73.68 18.01 73.17 C 16.36 73.13 14.77 72.67 13.22 72.15 Z" />
</g>
</svg>
