<svg xmlns="http://www.w3.org/2000/svg" width="95pt" height="55pt" version="1.1" viewBox="0 0 95 55"><g id="#0093ddff"><path fill="#0093dd" d="M 23.58 2.35 C 32.30 1.89 41.04 2.47 49.77 2.02 C 46.56 3.94 43.05 5.57 40.66 8.57 C 39.55 9.57 38.83 11.57 37.02 11.29 C 31.44 11.70 24.72 9.81 20.27 14.21 C 17.52 16.27 16.50 19.62 16.20 22.90 C 22.13 23.10 28.05 22.96 33.98 22.99 C 33.44 25.98 33.45 29.02 33.95 32.01 C 28.04 32.03 22.12 31.92 16.21 32.08 C 16.40 37.34 20.02 42.29 25.04 43.89 C 29.42 44.16 33.81 43.92 38.20 43.99 C 40.87 48.09 44.77 51.26 49.34 53.02 C 41.21 52.77 33.07 52.98 24.94 52.88 C 17.82 52.72 10.33 49.71 6.50 43.43 C 1.16 34.53 0.89 22.76 5.69 13.57 C 9.16 7.00 16.23 2.82 23.58 2.35 Z" opacity="1"/><path fill="#0093dd" d="M 39.60 18.74 C 42.30 10.21 49.88 2.85 59.09 2.31 C 70.15 1.98 81.22 2.33 92.28 2.13 C 92.28 5.23 92.25 8.33 92.38 11.43 C 82.61 11.75 72.82 11.36 63.05 11.61 C 59.64 11.67 56.47 13.72 54.70 16.58 C 51.42 21.27 51.35 27.36 52.23 32.81 C 53.29 37.48 56.08 42.51 60.99 43.89 C 67.53 44.31 74.11 44.00 80.66 44.04 C 80.59 39.85 80.62 35.66 80.62 31.47 C 74.79 31.46 68.95 31.50 63.12 31.47 C 63.14 28.65 63.14 25.82 63.10 23.00 C 73.06 23.00 83.02 23.00 92.99 23.00 C 92.91 32.96 92.97 42.93 92.94 52.89 C 81.96 52.92 70.97 52.86 59.98 52.90 C 53.78 53.08 47.52 50.14 43.98 44.99 C 38.34 37.63 37.04 27.53 39.60 18.74 Z" opacity="1"/></g></svg>